<?xml version="1.0" encoding="utf-8"?>
<!-- Generator: Adobe Illustrator 21.0.0, SVG Export Plug-In . SVG Version: 6.00 Build 0)  -->
<svg version="1.1" id="Layer_1" xmlns="http://www.w3.org/2000/svg" xmlns:xlink="http://www.w3.org/1999/xlink" x="0px" y="0px"
	 viewBox="0 0 1920 540" style="enable-background:new 0 0 1920 540;" xml:space="preserve">
<style type="text/css">
	.st0{fill:#19417C;}
	.st1{fill:#133463;}
	.st2{fill:none;stroke:#133463;stroke-width:4;stroke-linecap:round;stroke-miterlimit:10;}
	.st3{fill:none;}
</style>
<polygon id="mountains" class="st0" points="1920,540 0,540 0,0 95.3,50.6 160.5,315.2 238.3,126.6 320.8,170.4 370.6,236.9 
	416.8,221.4 504.9,268.2 591.1,414 692.6,367.9 740.6,428.5 789.8,409.6 960,510 1152.4,451.7 1256.8,298.1 1387.1,288.3 
	1504.3,203.5 1565.3,213.6 1600.3,156.5 1660.1,127.2 1756.1,270.2 1811.6,112.8 1920,0 "/>
<path id="floor" class="st1" d="M1920,540H0V432c103.5-2.6,174.4,56,231,56c93,0,148.9-56.6,257.9-60.6C612,423,617.8,451.1,697,458
	c115.3,10,169.4-24.4,263-23c205.4,3.1,155,93,411-12c104.8-43,206,68,322,75c99.3,6,173.1-66.7,227-66C1920,468,1920,504,1920,540z
	"/>
<g>
	<path class="st2" d="M245.5,401.5c-57.5,40.5-7,58-13,88c0,0,37.5-5.5,32.5-40.5"/>
	<path class="st2" d="M218,440c0,0,16-26,34-14"/>
	<path class="st2" d="M228,467c0,0-7-27,15-32"/>
	<path class="st2" d="M252,481.4c0,0,6-11.4-3-22.4"/>
	<path class="st2" d="M232,489c0,0-21,1-22-26"/>
	<circle class="st1" cx="245" cy="402" r="5"/>
	<circle class="st1" cx="210" cy="463" r="5"/>
	<circle class="st1" cx="265" cy="449" r="5"/>
</g>
<g>
	<path class="st2" d="M1676.5,406.5c-57.5,40.5-7,58-13,88c0,0,37.5-5.5,32.5-40.5"/>
	<path class="st2" d="M1649,445c0,0,16-26,34-14"/>
	<path class="st2" d="M1659,472c0,0-7-27,15-32"/>
	<path class="st2" d="M1683,486.4c0,0,6-11.4-3-22.4"/>
	<path class="st2" d="M1663,494c0,0-21,1-22-26"/>
	<circle class="st1" cx="1676" cy="407" r="5"/>
	<circle class="st1" cx="1641" cy="468" r="5"/>
	<circle class="st1" cx="1696" cy="454" r="5"/>
</g>
<g>
	<path class="st2" d="M953.5,348.5c-57.5,40.5-7,58-13,88c0,0,37.5-5.5,32.5-40.5"/>
	<path class="st2" d="M926,387c0,0,16-26,34-14"/>
	<path class="st2" d="M936,414c0,0-7-27,15-32"/>
	<path class="st2" d="M960,428.4c0,0,6-11.4-3-22.4"/>
	<path class="st2" d="M940,436c0,0-21,1-22-26"/>
	<circle class="st1" cx="953" cy="349" r="5"/>
	<circle class="st1" cx="918" cy="410" r="5"/>
	<circle class="st1" cx="973" cy="396" r="5"/>
</g>
<g>
	<path class="st1" d="M510.5,273.5c-0.1,1.8-0.3,3.7-0.7,5.5c-0.2,0.9-0.5,1.8-0.8,2.7c-0.4,0.9-0.7,1.8-1.1,2.6
		c-0.8,1.7-1.8,3.3-3,4.8c-1.1,1.5-2.4,2.9-3.7,4.3c-2.6,2.7-5.4,5.1-8.1,7.6c-2.7,2.5-5.2,5-7.1,7.9c-0.9,1.5-1.7,3-2.3,4.5
		c-0.5,1.6-0.9,3.2-1.1,4.9c-0.3,3.3,0,6.9,1,10c1,3.2,2.7,6.2,4.8,9c2.1,2.8,4.6,5.5,7,8.5c1.2,1.5,2.4,3.1,3.4,4.8
		c1,1.7,1.9,3.6,2.6,5.6c1.4,4,1.5,8.2,0.9,12.2c-0.6,4-1.8,7.7-3.3,11.3c-1.3,3.2-2.3,6.5-2.8,9.9c-1.1,6.7-0.2,13.7,2.8,19.9
		c1.4,3.1,3.3,6,5.5,8.7c1.1,1.3,2.3,2.6,3.5,3.8c0.6,0.6,1.3,1.2,1.9,1.7c0.6,0.5,1.4,1.1,1.9,1.5l-3.6,4c-0.4-0.5-0.7-0.9-1-1.4
		c-0.3-0.4-0.6-0.9-0.8-1.4c-0.5-0.9-1-1.8-1.4-2.8c-0.9-1.9-1.6-3.9-2-5.9c-1-4.1-1.1-8.3-0.5-12.4c0.7-4.1,2.2-8,4.1-11.5
		c1-1.8,2.1-3.5,3.3-5c0.6-0.8,1.2-1.6,1.9-2.3l1.9-2.2c2.4-2.8,4.5-5.8,5.9-9.2c0.7-1.7,1.3-3.4,1.7-5.2c0.4-1.8,0.6-3.6,0.6-5.5
		c0-3.7-0.7-7.4-2-11c-1.3-3.5-3.1-7-5.5-10c2.7,2.7,4.9,6,6.6,9.5c1.7,3.5,2.8,7.4,3.1,11.4c0.1,2,0.1,4-0.2,6
		c-0.3,2-0.7,4-1.4,5.9c-1.3,3.8-3.4,7.3-5.9,10.5L515,389c-0.6,0.7-1.1,1.5-1.6,2.2c-1,1.5-2,3.1-2.8,4.7
		c-1.6,3.2-2.8,6.7-3.2,10.2c-0.4,3.5-0.2,7.1,0.8,10.4c0.5,1.7,1.1,3.3,1.8,4.9c0.4,0.8,0.8,1.6,1.3,2.3c0.2,0.4,0.5,0.7,0.7,1.1
		c0.2,0.3,0.5,0.7,0.7,0.9l12.4,14.9l-16-10.8c-0.9-0.6-1.7-1.2-2.4-1.8c-0.8-0.6-1.5-1.3-2.2-1.9c-1.4-1.3-2.8-2.7-4.1-4.2
		c-2.5-3-4.7-6.3-6.4-9.9c-3.4-7.1-4.7-15.4-3.4-23.3c0.6-3.9,1.8-7.7,3.3-11.3c1.4-3.2,2.5-6.6,3-9.9c0.5-3.3,0.4-6.6-0.5-9.6
		c-0.5-1.5-1.1-3-2-4.5c-0.8-1.5-1.8-2.9-2.9-4.3c-2.1-2.8-4.6-5.6-6.9-8.8c-2.2-3.2-4.1-6.8-5.1-10.7c-0.5-1.9-0.8-3.9-0.9-5.9
		c-0.2-2,0-4,0.2-5.9c0.3-2,0.8-3.9,1.6-5.8c0.8-1.8,1.8-3.6,3-5.2c2.3-3.2,5.2-5.8,8.1-8.1c2.9-2.4,5.8-4.5,8.6-6.9
		c1.4-1.2,2.7-2.4,3.9-3.8c1.2-1.3,2.3-2.8,3.2-4.3C508.8,280.7,510,277.1,510.5,273.5z"/>
</g>
<g>
	<path class="st1" d="M510.5,427.5c-7.1,0.2-14.3-1-21.1-3.6c-1.7-0.7-3.4-1.4-5-2.4c-1.6-0.9-3.2-2-4.7-3.2
		c-2.9-2.4-5.5-5.6-6.9-9.4c-0.4-0.9-0.6-1.9-0.8-2.9c-0.2-0.9-0.3-1.9-0.4-2.8c-0.2-0.9-0.1-1.9-0.1-2.9c0-0.5,0-1,0-1.5l0.2-1.5
		c0.1-0.5,0.1-1,0.2-1.5l0.4-1.4c0.2-0.5,0.2-1,0.5-1.4l0.6-1.3c0.4-0.9,0.9-1.7,1.4-2.5c0.5-0.8,1.1-1.5,1.7-2.3
		c2.3-2.9,4.8-5.2,6.7-7.9c0.5-0.7,0.9-1.4,1.3-2.1c0.3-0.8,0.7-1.5,1-2.3c0.2-0.8,0.5-1.6,0.7-2.5c0.1-0.9,0.2-1.7,0.4-2.6
		c0.1,0.9,0.2,1.8,0.4,2.7c0,0.9,0,1.8-0.1,2.7c-0.1,0.9-0.3,1.8-0.5,2.7c-0.3,0.9-0.6,1.8-1,2.6c-1.6,3.4-3.9,6.3-5.7,9.1
		c-1.8,2.8-3,5.7-3.2,8.7l-0.1,1.1c0,0.4,0,0.8,0,1.2c0.1,0.8,0,1.6,0.2,2.4l0.4,2.4c0.2,0.7,0.4,1.5,0.7,2.2
		c0.2,0.7,0.6,1.4,0.9,2.1c0.4,0.7,0.8,1.3,1.2,1.9c0.9,1.3,1.9,2.4,3.1,3.5c2.4,2.2,5.2,4,8.2,5.5
		C497.1,423.4,503.7,425.6,510.5,427.5z"/>
</g>
<g>
	<path class="st1" d="M1433.5,259.5c-0.1,1.8-0.3,3.7-0.7,5.5c-0.2,0.9-0.5,1.8-0.8,2.7c-0.4,0.9-0.7,1.8-1.1,2.6
		c-0.8,1.7-1.8,3.3-3,4.8c-1.1,1.5-2.4,2.9-3.7,4.3c-2.6,2.7-5.4,5.1-8.1,7.6c-2.7,2.5-5.2,5-7.1,7.9c-0.9,1.5-1.7,3-2.3,4.5
		c-0.5,1.6-0.9,3.2-1.1,4.9c-0.3,3.3,0,6.9,1,10c1,3.2,2.7,6.2,4.8,9c2.1,2.8,4.6,5.5,7,8.5c1.2,1.5,2.4,3.1,3.4,4.8
		c1,1.7,1.9,3.6,2.6,5.6c1.4,4,1.5,8.2,0.9,12.2c-0.6,4-1.8,7.7-3.3,11.3c-1.3,3.2-2.3,6.5-2.8,9.9c-1.1,6.7-0.2,13.7,2.8,19.9
		c1.4,3.1,3.3,6,5.5,8.7c1.1,1.3,2.3,2.6,3.5,3.8c0.6,0.6,1.3,1.2,1.9,1.7c0.6,0.5,1.4,1.1,1.9,1.5l-3.6,4c-0.4-0.5-0.7-0.9-1-1.4
		c-0.3-0.4-0.6-0.9-0.8-1.4c-0.5-0.9-1-1.8-1.4-2.8c-0.9-1.9-1.6-3.9-2-5.9c-1-4.1-1.1-8.3-0.5-12.4c0.7-4.1,2.2-8,4.1-11.5
		c1-1.8,2.1-3.5,3.3-5c0.6-0.8,1.2-1.6,1.9-2.3l1.9-2.2c2.4-2.8,4.5-5.8,5.9-9.2c0.7-1.7,1.3-3.4,1.7-5.2c0.4-1.8,0.6-3.6,0.6-5.5
		c0-3.7-0.7-7.4-2-11c-1.3-3.5-3.1-7-5.5-10c2.7,2.7,4.9,6,6.6,9.5c1.7,3.5,2.8,7.4,3.1,11.4c0.1,2,0.1,4-0.2,6
		c-0.3,2-0.7,4-1.4,5.9c-1.3,3.8-3.4,7.3-5.9,10.5l-1.8,2.3c-0.6,0.7-1.1,1.5-1.6,2.2c-1,1.5-2,3.1-2.8,4.7
		c-1.6,3.2-2.8,6.7-3.2,10.2c-0.4,3.5-0.2,7.1,0.8,10.4c0.5,1.7,1.1,3.3,1.8,4.9c0.4,0.8,0.8,1.6,1.3,2.3c0.2,0.4,0.5,0.7,0.7,1.1
		c0.2,0.3,0.5,0.7,0.7,0.9l12.4,14.9l-16-10.8c-0.9-0.6-1.7-1.2-2.4-1.8c-0.8-0.6-1.5-1.3-2.2-1.9c-1.4-1.3-2.8-2.7-4.1-4.2
		c-2.5-3-4.7-6.3-6.4-9.9c-3.4-7.1-4.7-15.4-3.4-23.3c0.6-3.9,1.8-7.7,3.3-11.3c1.4-3.2,2.5-6.6,3-9.9c0.5-3.3,0.4-6.6-0.5-9.6
		c-0.5-1.5-1.1-3-2-4.5c-0.8-1.5-1.8-2.9-2.9-4.3c-2.1-2.8-4.6-5.6-6.9-8.8c-2.2-3.2-4.1-6.8-5.1-10.7c-0.5-1.9-0.8-3.9-0.9-5.9
		c-0.2-2,0-4,0.2-5.9c0.3-2,0.8-3.9,1.6-5.8c0.8-1.8,1.8-3.6,3-5.2c2.3-3.2,5.2-5.8,8.1-8.1c2.9-2.4,5.8-4.5,8.6-6.9
		c1.4-1.2,2.7-2.4,3.9-3.8c1.2-1.3,2.3-2.8,3.2-4.3C1431.8,266.7,1433,263.1,1433.5,259.5z"/>
</g>
<g>
	<path class="st1" d="M1433.5,413.5c-7.1,0.2-14.3-1-21.1-3.6c-1.7-0.7-3.4-1.4-5-2.4c-1.6-0.9-3.2-2-4.7-3.2
		c-2.9-2.4-5.5-5.6-6.9-9.4c-0.4-0.9-0.6-1.9-0.8-2.9c-0.2-0.9-0.3-1.9-0.4-2.8c-0.2-0.9-0.1-1.9-0.1-2.9c0-0.5,0-1,0-1.5l0.2-1.5
		c0.1-0.5,0.1-1,0.2-1.5l0.4-1.4c0.2-0.5,0.2-1,0.5-1.4l0.6-1.3c0.4-0.9,0.9-1.7,1.4-2.5c0.5-0.8,1.1-1.5,1.7-2.3
		c2.3-2.9,4.8-5.2,6.7-7.9c0.5-0.7,0.9-1.4,1.3-2.1c0.3-0.8,0.7-1.5,1-2.3c0.2-0.8,0.5-1.6,0.7-2.5c0.1-0.9,0.2-1.7,0.4-2.6
		c0.1,0.9,0.2,1.8,0.4,2.7c0,0.9,0,1.8-0.1,2.7c-0.1,0.9-0.3,1.8-0.5,2.7c-0.3,0.9-0.6,1.8-1,2.6c-1.6,3.4-3.9,6.3-5.7,9.1
		c-1.8,2.8-3,5.7-3.2,8.7l-0.1,1.1c0,0.4,0,0.8,0,1.2c0.1,0.8,0,1.6,0.2,2.4l0.4,2.4c0.2,0.7,0.4,1.5,0.7,2.2
		c0.2,0.7,0.6,1.4,0.9,2.1c0.4,0.7,0.8,1.3,1.2,1.9c0.9,1.3,1.9,2.4,3.1,3.5c2.4,2.2,5.2,4,8.2,5.5
		C1420.1,409.4,1426.7,411.6,1433.5,413.5z"/>
</g>
<g>
	<g>
		<path class="st1" d="M741.9,466.1c-0.7-0.7-1.2-1.3-1.8-2c-0.6-0.7-1.1-1.3-1.6-2c-1-1.4-2-2.8-3-4.2c-1.9-2.9-3.5-5.9-5-9
			c-2.9-6.2-4.8-13-5.2-19.9c-0.4-6.9,0.7-13.9,3.2-20.2c2.5-6.4,6.3-12.1,10.7-17.2c4.4-4.8,8.1-10.1,10.6-16
			c2.5-5.9,3.8-12.4,3.4-18.8c-0.3-6.5-2.2-12.8-5.1-18.7c-2.9-5.9-6.7-11.3-11.3-16c4.8,4.5,8.8,9.9,12,15.7
			c3.1,5.8,5.3,12.3,5.9,18.9c0.6,6.7-0.4,13.5-2.8,19.8c-2.4,6.3-6.2,12.1-10.4,17.2c-4.1,5-7.4,10.5-9.5,16.5
			c-2.1,6-2.9,12.3-2.2,18.6c0.6,6.2,2.6,12.3,5.4,17.9c1.4,2.8,3.1,5.5,4.9,8.1c0.9,1.3,1.9,2.5,2.9,3.8c0.5,0.6,1,1.2,1.5,1.8
			c0.5,0.6,1.1,1.2,1.5,1.6L741.9,466.1z"/>
	</g>
	<g>
		<g>
			<g>
				<rect x="731.4" y="324.5" class="st3" width="12.8" height="6.6"/>
				<path class="st1" d="M744.2,330.2c0,0-4-9.2-12.8-4.2C731.4,326,735.9,333.8,744.2,330.2z"/>
			</g>
			<g>
				<rect x="737.9" y="335.4" class="st3" width="12.8" height="6.6"/>
				<path class="st1" d="M750.6,341.1c0,0-4-9.2-12.8-4.2C737.9,336.9,742.4,344.7,750.6,341.1z"/>
			</g>
			<g>
				<rect x="740.9" y="347.7" class="st3" width="12.8" height="6.6"/>
				<path class="st1" d="M753.7,353.4c0,0-4-9.2-12.8-4.2C740.9,349.2,745.4,357,753.7,353.4z"/>
			</g>
			<g>
				<rect x="740.4" y="360.3" class="st3" width="12.8" height="6.6"/>
				<path class="st1" d="M753.1,366c0,0-4-9.2-12.8-4.2C740.4,361.8,744.9,369.6,753.1,366z"/>
			</g>
			<g>
				<rect x="736.7" y="372.6" class="st3" width="12.8" height="6.6"/>
				<path class="st1" d="M749.5,378.3c0,0-4-9.2-12.8-4.2C736.7,374,741.2,381.9,749.5,378.3z"/>
			</g>
			<g>
				<rect x="729.6" y="383.1" class="st3" width="12.8" height="6.6"/>
				<path class="st1" d="M742.4,388.8c0,0-4-9.2-12.8-4.2C729.6,384.6,734.1,392.4,742.4,388.8z"/>
			</g>
			<g>
				<rect x="722.4" y="393.7" class="st3" width="12.8" height="6.6"/>
				<path class="st1" d="M735.2,399.4c0,0-4-9.2-12.8-4.2C722.4,395.1,726.9,403,735.2,399.4z"/>
			</g>
			<g>
				<rect x="715.8" y="404.6" class="st3" width="12.8" height="6.6"/>
				<path class="st1" d="M728.6,410.3c0,0-4-9.2-12.8-4.2C715.8,406,720.3,413.9,728.6,410.3z"/>
			</g>
			<g>
				<rect x="712.6" y="416.6" class="st3" width="12.8" height="6.6"/>
				<path class="st1" d="M725.4,422.3c0,0-4-9.2-12.8-4.2C712.6,418,717.1,425.9,725.4,422.3z"/>
			</g>
			<g>
				<rect x="713.6" y="429" class="st3" width="12.8" height="6.6"/>
				<path class="st1" d="M726.4,434.7c0,0-4-9.2-12.8-4.2C713.6,430.5,718.1,438.3,726.4,434.7z"/>
			</g>
			<g>
				<rect x="718.7" y="440.7" class="st3" width="12.8" height="6.6"/>
				<path class="st1" d="M731.5,446.4c0,0-4-9.2-12.8-4.2C718.7,442.1,723.3,450,731.5,446.4z"/>
			</g>
			<g>
				<rect x="726.6" y="450.7" class="st3" width="12.8" height="6.6"/>
				<path class="st1" d="M739.4,456.4c0,0-4-9.2-12.8-4.2C726.6,452.2,731.1,460,739.4,456.4z"/>
			</g>
			<g>
				<rect x="736.1" y="459.2" class="st3" width="12.8" height="6.6"/>
				<path class="st1" d="M748.9,464.9c0,0-4-9.2-12.8-4.2C736.1,460.6,740.6,468.5,748.9,464.9z"/>
			</g>
		</g>
	</g>
	<g>
		<g>
			<g>
				<rect x="746.7" y="328.5" class="st3" width="12.8" height="6.6"/>
				<path class="st1" d="M746.7,334.1c0,0,4-9.2,12.8-4.2C759.5,329.9,755,337.7,746.7,334.1z"/>
			</g>
			<g>
				<rect x="752" y="340" class="st3" width="12.8" height="6.6"/>
				<path class="st1" d="M752,345.7c0,0,4-9.2,12.8-4.2C764.8,341.4,760.3,349.3,752,345.7z"/>
			</g>
			<g>
				<rect x="755.8" y="352.2" class="st3" width="12.8" height="6.6"/>
				<path class="st1" d="M755.8,357.9c0,0,4-9.2,12.8-4.2C768.6,353.6,764.1,361.5,755.8,357.9z"/>
			</g>
			<g>
				<rect x="755.5" y="364.9" class="st3" width="12.8" height="6.6"/>
				<path class="st1" d="M755.5,370.6c0,0,4-9.2,12.8-4.2C768.2,366.3,763.7,374.2,755.5,370.6z"/>
			</g>
			<g>
				<rect x="751.2" y="376.7" class="st3" width="12.8" height="6.6"/>
				<path class="st1" d="M751.2,382.4c0,0,4-9.2,12.8-4.2C763.9,378.1,759.4,386,751.2,382.4z"/>
			</g>
			<g>
				<rect x="744.6" y="387.6" class="st3" width="12.8" height="6.6"/>
				<path class="st1" d="M744.6,393.3c0,0,4-9.2,12.8-4.2C757.3,389,752.8,396.9,744.6,393.3z"/>
			</g>
			<g>
				<rect x="737.4" y="398.1" class="st3" width="12.8" height="6.6"/>
				<path class="st1" d="M737.4,403.8c0,0,4-9.2,12.8-4.2C750.2,399.6,745.6,407.4,737.4,403.8z"/>
			</g>
			<g>
				<rect x="730.9" y="409.1" class="st3" width="12.8" height="6.6"/>
				<path class="st1" d="M730.9,414.8c0,0,4-9.2,12.8-4.2C743.7,410.5,739.2,418.4,730.9,414.8z"/>
			</g>
			<g>
				<rect x="728.8" y="421.6" class="st3" width="12.8" height="6.6"/>
				<path class="st1" d="M728.8,427.3c0,0,4-9.2,12.8-4.2C741.6,423.1,737,430.9,728.8,427.3z"/>
			</g>
			<g>
				<rect x="731.5" y="434.1" class="st3" width="12.8" height="6.6"/>
				<path class="st1" d="M731.5,439.8c0,0,4-9.2,12.8-4.2C744.3,435.5,739.8,443.4,731.5,439.8z"/>
			</g>
			<g>
				<rect x="737" y="445.6" class="st3" width="12.8" height="6.6"/>
				<path class="st1" d="M737,451.3c0,0,4-9.2,12.8-4.2C749.8,447,745.3,454.9,737,451.3z"/>
			</g>
			<g>
				<rect x="744.1" y="456.2" class="st3" width="12.8" height="6.6"/>
				<path class="st1" d="M744.1,461.9c0,0,4-9.2,12.8-4.2C756.9,457.6,752.4,465.5,744.1,461.9z"/>
			</g>
		</g>
	</g>
</g>
<g>
	<g>
		<path class="st1" d="M1182.9,480.1c-0.7-0.7-1.2-1.3-1.8-2c-0.6-0.7-1.1-1.3-1.6-2c-1-1.4-2-2.8-3-4.2c-1.9-2.9-3.5-5.9-5-9
			c-2.9-6.2-4.8-13-5.2-19.9c-0.4-6.9,0.7-13.9,3.2-20.2c2.5-6.4,6.3-12.1,10.7-17.2c4.4-4.8,8.1-10.1,10.6-16
			c2.5-5.9,3.8-12.4,3.4-18.8c-0.3-6.5-2.2-12.8-5.1-18.7c-2.9-5.9-6.7-11.3-11.3-16c4.8,4.5,8.8,9.9,12,15.7
			c3.1,5.8,5.3,12.3,5.9,18.9c0.6,6.7-0.4,13.5-2.8,19.8c-2.4,6.3-6.2,12.1-10.4,17.2c-4.1,5-7.4,10.5-9.5,16.5
			c-2.1,6-2.9,12.3-2.2,18.6c0.6,6.2,2.6,12.3,5.4,17.9c1.4,2.8,3.1,5.5,4.9,8.1c0.9,1.3,1.9,2.5,2.9,3.8c0.5,0.6,1,1.2,1.5,1.8
			c0.5,0.6,1.1,1.2,1.5,1.6L1182.9,480.1z"/>
	</g>
	<g>
		<g>
			<g>
				<rect x="1172.4" y="338.5" class="st3" width="12.8" height="6.6"/>
				<path class="st1" d="M1185.2,344.2c0,0-4-9.2-12.8-4.2C1172.4,340,1176.9,347.8,1185.2,344.2z"/>
			</g>
			<g>
				<rect x="1178.9" y="349.4" class="st3" width="12.8" height="6.6"/>
				<path class="st1" d="M1191.6,355.1c0,0-4-9.2-12.8-4.2C1178.9,350.9,1183.4,358.7,1191.6,355.1z"/>
			</g>
			<g>
				<rect x="1181.9" y="361.7" class="st3" width="12.8" height="6.6"/>
				<path class="st1" d="M1194.7,367.4c0,0-4-9.2-12.8-4.2C1181.9,363.2,1186.4,371,1194.7,367.4z"/>
			</g>
			<g>
				<rect x="1181.4" y="374.3" class="st3" width="12.8" height="6.6"/>
				<path class="st1" d="M1194.1,380c0,0-4-9.2-12.8-4.2C1181.4,375.8,1185.9,383.6,1194.1,380z"/>
			</g>
			<g>
				<rect x="1177.7" y="386.6" class="st3" width="12.8" height="6.6"/>
				<path class="st1" d="M1190.5,392.3c0,0-4-9.2-12.8-4.2C1177.7,388,1182.2,395.9,1190.5,392.3z"/>
			</g>
			<g>
				<rect x="1170.6" y="397.1" class="st3" width="12.8" height="6.6"/>
				<path class="st1" d="M1183.4,402.8c0,0-4-9.2-12.8-4.2C1170.6,398.6,1175.1,406.4,1183.4,402.8z"/>
			</g>
			<g>
				<rect x="1163.4" y="407.7" class="st3" width="12.8" height="6.6"/>
				<path class="st1" d="M1176.2,413.4c0,0-4-9.2-12.8-4.2C1163.4,409.1,1167.9,417,1176.2,413.4z"/>
			</g>
			<g>
				<rect x="1156.8" y="418.6" class="st3" width="12.8" height="6.6"/>
				<path class="st1" d="M1169.6,424.3c0,0-4-9.2-12.8-4.2C1156.8,420,1161.3,427.9,1169.6,424.3z"/>
			</g>
			<g>
				<rect x="1153.6" y="430.6" class="st3" width="12.8" height="6.6"/>
				<path class="st1" d="M1166.4,436.3c0,0-4-9.2-12.8-4.2C1153.6,432,1158.1,439.9,1166.4,436.3z"/>
			</g>
			<g>
				<rect x="1154.6" y="443" class="st3" width="12.8" height="6.6"/>
				<path class="st1" d="M1167.4,448.7c0,0-4-9.2-12.8-4.2C1154.6,444.5,1159.1,452.3,1167.4,448.7z"/>
			</g>
			<g>
				<rect x="1159.7" y="454.7" class="st3" width="12.8" height="6.6"/>
				<path class="st1" d="M1172.5,460.4c0,0-4-9.2-12.8-4.2C1159.7,456.1,1164.3,464,1172.5,460.4z"/>
			</g>
			<g>
				<rect x="1167.6" y="464.7" class="st3" width="12.8" height="6.6"/>
				<path class="st1" d="M1180.4,470.4c0,0-4-9.2-12.8-4.2C1167.6,466.2,1172.1,474,1180.4,470.4z"/>
			</g>
			<g>
				<rect x="1177.1" y="473.2" class="st3" width="12.8" height="6.6"/>
				<path class="st1" d="M1189.9,478.9c0,0-4-9.2-12.8-4.2C1177.1,474.6,1181.6,482.5,1189.9,478.9z"/>
			</g>
		</g>
	</g>
	<g>
		<g>
			<g>
				<rect x="1187.7" y="342.5" class="st3" width="12.8" height="6.6"/>
				<path class="st1" d="M1187.7,348.1c0,0,4-9.2,12.8-4.2C1200.5,343.9,1196,351.7,1187.7,348.1z"/>
			</g>
			<g>
				<rect x="1193" y="354" class="st3" width="12.8" height="6.6"/>
				<path class="st1" d="M1193,359.7c0,0,4-9.2,12.8-4.2C1205.8,355.4,1201.3,363.3,1193,359.7z"/>
			</g>
			<g>
				<rect x="1196.8" y="366.2" class="st3" width="12.8" height="6.6"/>
				<path class="st1" d="M1196.8,371.9c0,0,4-9.2,12.8-4.2C1209.6,367.6,1205.1,375.5,1196.8,371.9z"/>
			</g>
			<g>
				<rect x="1196.5" y="378.9" class="st3" width="12.8" height="6.6"/>
				<path class="st1" d="M1196.5,384.6c0,0,4-9.2,12.8-4.2C1209.2,380.3,1204.7,388.2,1196.5,384.6z"/>
			</g>
			<g>
				<rect x="1192.2" y="390.7" class="st3" width="12.8" height="6.6"/>
				<path class="st1" d="M1192.2,396.4c0,0,4-9.2,12.8-4.2C1204.9,392.1,1200.4,400,1192.2,396.4z"/>
			</g>
			<g>
				<rect x="1185.6" y="401.6" class="st3" width="12.8" height="6.6"/>
				<path class="st1" d="M1185.6,407.3c0,0,4-9.2,12.8-4.2C1198.3,403,1193.8,410.9,1185.6,407.3z"/>
			</g>
			<g>
				<rect x="1178.4" y="412.1" class="st3" width="12.8" height="6.6"/>
				<path class="st1" d="M1178.4,417.8c0,0,4-9.2,12.8-4.2C1191.2,413.6,1186.6,421.4,1178.4,417.8z"/>
			</g>
			<g>
				<rect x="1171.9" y="423.1" class="st3" width="12.8" height="6.6"/>
				<path class="st1" d="M1171.9,428.8c0,0,4-9.2,12.8-4.2C1184.7,424.5,1180.2,432.4,1171.9,428.8z"/>
			</g>
			<g>
				<rect x="1169.8" y="435.6" class="st3" width="12.8" height="6.6"/>
				<path class="st1" d="M1169.8,441.3c0,0,4-9.2,12.8-4.2C1182.6,437.1,1178,444.9,1169.8,441.3z"/>
			</g>
			<g>
				<rect x="1172.5" y="448.1" class="st3" width="12.8" height="6.6"/>
				<path class="st1" d="M1172.5,453.8c0,0,4-9.2,12.8-4.2C1185.3,449.5,1180.8,457.4,1172.5,453.8z"/>
			</g>
			<g>
				<rect x="1178" y="459.6" class="st3" width="12.8" height="6.6"/>
				<path class="st1" d="M1178,465.3c0,0,4-9.2,12.8-4.2C1190.8,461,1186.3,468.9,1178,465.3z"/>
			</g>
			<g>
				<rect x="1185.1" y="470.2" class="st3" width="12.8" height="6.6"/>
				<path class="st1" d="M1185.1,475.9c0,0,4-9.2,12.8-4.2C1197.9,471.6,1193.4,479.5,1185.1,475.9z"/>
			</g>
		</g>
	</g>
</g>
<g>
	<g>
		<path class="st1" d="M1847.9,460.1c-0.7-0.7-1.2-1.3-1.8-2c-0.6-0.7-1.1-1.3-1.6-2c-1-1.4-2-2.8-3-4.2c-1.9-2.9-3.5-5.9-5-9
			c-2.9-6.2-4.8-13-5.2-19.9c-0.4-6.9,0.7-13.9,3.2-20.2c2.5-6.4,6.3-12.1,10.7-17.2c4.4-4.8,8.1-10.1,10.6-16
			c2.5-5.9,3.8-12.4,3.4-18.8c-0.3-6.5-2.2-12.8-5.1-18.7c-2.9-5.9-6.7-11.3-11.3-16c4.8,4.5,8.8,9.9,12,15.7
			c3.1,5.8,5.3,12.3,5.9,18.9c0.6,6.7-0.4,13.5-2.8,19.8c-2.4,6.3-6.2,12.1-10.4,17.2c-4.1,5-7.4,10.5-9.5,16.5
			c-2.1,6-2.9,12.3-2.2,18.6c0.6,6.2,2.6,12.3,5.4,17.9c1.4,2.8,3.1,5.5,4.9,8.1c0.9,1.3,1.9,2.5,2.9,3.8c0.5,0.6,1,1.2,1.5,1.8
			c0.5,0.6,1.1,1.2,1.5,1.6L1847.9,460.1z"/>
	</g>
	<g>
		<g>
			<g>
				<rect x="1837.4" y="318.5" class="st3" width="12.8" height="6.6"/>
				<path class="st1" d="M1850.2,324.2c0,0-4-9.2-12.8-4.2C1837.4,320,1841.9,327.8,1850.2,324.2z"/>
			</g>
			<g>
				<rect x="1843.9" y="329.4" class="st3" width="12.8" height="6.6"/>
				<path class="st1" d="M1856.6,335.1c0,0-4-9.2-12.8-4.2C1843.9,330.9,1848.4,338.7,1856.6,335.1z"/>
			</g>
			<g>
				<rect x="1846.9" y="341.7" class="st3" width="12.8" height="6.6"/>
				<path class="st1" d="M1859.7,347.4c0,0-4-9.2-12.8-4.2C1846.9,343.2,1851.4,351,1859.7,347.4z"/>
			</g>
			<g>
				<rect x="1846.4" y="354.3" class="st3" width="12.8" height="6.6"/>
				<path class="st1" d="M1859.1,360c0,0-4-9.2-12.8-4.2C1846.4,355.8,1850.9,363.6,1859.1,360z"/>
			</g>
			<g>
				<rect x="1842.7" y="366.6" class="st3" width="12.8" height="6.6"/>
				<path class="st1" d="M1855.5,372.3c0,0-4-9.2-12.8-4.2C1842.7,368,1847.2,375.9,1855.5,372.3z"/>
			</g>
			<g>
				<rect x="1835.6" y="377.1" class="st3" width="12.8" height="6.6"/>
				<path class="st1" d="M1848.4,382.8c0,0-4-9.2-12.8-4.2C1835.6,378.6,1840.1,386.4,1848.4,382.8z"/>
			</g>
			<g>
				<rect x="1828.4" y="387.7" class="st3" width="12.8" height="6.6"/>
				<path class="st1" d="M1841.2,393.4c0,0-4-9.2-12.8-4.2C1828.4,389.1,1832.9,397,1841.2,393.4z"/>
			</g>
			<g>
				<rect x="1821.8" y="398.6" class="st3" width="12.8" height="6.6"/>
				<path class="st1" d="M1834.6,404.3c0,0-4-9.2-12.8-4.2C1821.8,400,1826.3,407.9,1834.6,404.3z"/>
			</g>
			<g>
				<rect x="1818.6" y="410.6" class="st3" width="12.8" height="6.6"/>
				<path class="st1" d="M1831.4,416.3c0,0-4-9.2-12.8-4.2C1818.6,412,1823.1,419.9,1831.4,416.3z"/>
			</g>
			<g>
				<rect x="1819.6" y="423" class="st3" width="12.8" height="6.6"/>
				<path class="st1" d="M1832.4,428.7c0,0-4-9.2-12.8-4.2C1819.6,424.5,1824.1,432.3,1832.4,428.7z"/>
			</g>
			<g>
				<rect x="1824.7" y="434.7" class="st3" width="12.8" height="6.6"/>
				<path class="st1" d="M1837.5,440.4c0,0-4-9.2-12.8-4.2C1824.7,436.1,1829.3,444,1837.5,440.4z"/>
			</g>
			<g>
				<rect x="1832.6" y="444.7" class="st3" width="12.8" height="6.6"/>
				<path class="st1" d="M1845.4,450.4c0,0-4-9.2-12.8-4.2C1832.6,446.2,1837.1,454,1845.4,450.4z"/>
			</g>
			<g>
				<rect x="1842.1" y="453.2" class="st3" width="12.8" height="6.6"/>
				<path class="st1" d="M1854.9,458.9c0,0-4-9.2-12.8-4.2C1842.1,454.6,1846.6,462.5,1854.9,458.9z"/>
			</g>
		</g>
	</g>
	<g>
		<g>
			<g>
				<rect x="1852.7" y="322.5" class="st3" width="12.8" height="6.6"/>
				<path class="st1" d="M1852.7,328.1c0,0,4-9.2,12.8-4.2C1865.5,323.9,1861,331.7,1852.7,328.1z"/>
			</g>
			<g>
				<rect x="1858" y="334" class="st3" width="12.8" height="6.6"/>
				<path class="st1" d="M1858,339.7c0,0,4-9.2,12.8-4.2C1870.8,335.4,1866.3,343.3,1858,339.7z"/>
			</g>
			<g>
				<rect x="1861.8" y="346.2" class="st3" width="12.8" height="6.6"/>
				<path class="st1" d="M1861.8,351.9c0,0,4-9.2,12.8-4.2C1874.6,347.6,1870.1,355.5,1861.8,351.9z"/>
			</g>
			<g>
				<rect x="1861.5" y="358.9" class="st3" width="12.8" height="6.6"/>
				<path class="st1" d="M1861.5,364.6c0,0,4-9.2,12.8-4.2C1874.2,360.3,1869.7,368.2,1861.5,364.6z"/>
			</g>
			<g>
				<rect x="1857.2" y="370.7" class="st3" width="12.8" height="6.6"/>
				<path class="st1" d="M1857.2,376.4c0,0,4-9.2,12.8-4.2C1869.9,372.1,1865.4,380,1857.2,376.4z"/>
			</g>
			<g>
				<rect x="1850.6" y="381.6" class="st3" width="12.8" height="6.6"/>
				<path class="st1" d="M1850.6,387.3c0,0,4-9.2,12.8-4.2C1863.3,383,1858.8,390.9,1850.6,387.3z"/>
			</g>
			<g>
				<rect x="1843.4" y="392.1" class="st3" width="12.8" height="6.6"/>
				<path class="st1" d="M1843.4,397.8c0,0,4-9.2,12.8-4.2C1856.2,393.6,1851.6,401.4,1843.4,397.8z"/>
			</g>
			<g>
				<rect x="1836.9" y="403.1" class="st3" width="12.8" height="6.6"/>
				<path class="st1" d="M1836.9,408.8c0,0,4-9.2,12.8-4.2C1849.7,404.5,1845.2,412.4,1836.9,408.8z"/>
			</g>
			<g>
				<rect x="1834.8" y="415.6" class="st3" width="12.8" height="6.6"/>
				<path class="st1" d="M1834.8,421.3c0,0,4-9.2,12.8-4.2C1847.6,417.1,1843,424.9,1834.8,421.3z"/>
			</g>
			<g>
				<rect x="1837.5" y="428.1" class="st3" width="12.8" height="6.6"/>
				<path class="st1" d="M1837.5,433.8c0,0,4-9.2,12.8-4.2C1850.3,429.5,1845.8,437.4,1837.5,433.8z"/>
			</g>
			<g>
				<rect x="1843" y="439.6" class="st3" width="12.8" height="6.6"/>
				<path class="st1" d="M1843,445.3c0,0,4-9.2,12.8-4.2C1855.8,441,1851.3,448.9,1843,445.3z"/>
			</g>
			<g>
				<rect x="1850.1" y="450.2" class="st3" width="12.8" height="6.6"/>
				<path class="st1" d="M1850.1,455.9c0,0,4-9.2,12.8-4.2C1862.9,451.6,1858.4,459.5,1850.1,455.9z"/>
			</g>
		</g>
	</g>
</g>
</svg>
