<?xml version="1.0" encoding="utf-8"?>
<!-- Generator: Adobe Illustrator 21.0.0, SVG Export Plug-In . SVG Version: 6.00 Build 0)  -->
<svg version="1.1" xmlns="http://www.w3.org/2000/svg" xmlns:xlink="http://www.w3.org/1999/xlink" x="0px" y="0px"
	 viewBox="0 0 428 365" style="enable-background:new 0 0 428 365;" xml:space="preserve">
<style type="text/css">
	.st0{display:none;}
	.st1{display:inline;}
	.st2{fill:none;}
	.st3{fill:#FFFFFF;}
</style>
<g id="Layer_2" class="st0">
	<g class="st1">
		<path class="st2" d="M332,124h-1h-22.2H195h-7h-1.2l-74,60l71.1,61.3V225v-53h54h23h47.8H332c13.3,0,24-10.7,24-24
			S345.3,124,332,124z"/>
		<path class="st3" d="M333,71c-0.3,0-0.7,0-1,0v0h-78.8H189h-21.5L73,147.6V1L19,45v146.4v69.5v0.1l23.6-19.3l28.6-23.2l113.8,98
			l54,46.5v-71.3V225h94c42.5,0,77-34.5,77-77S375.5,71,333,71z M333,172h-23.2H262h-23h-54v53v20.3L113.9,184l74-60h1.2h7h113.8
			H332h1c13.3,0,24,10.7,24,24S346.3,172,333,172z"/>
	</g>
</g>
<g id="V3">
	<g>
		<path class="st3" d="M298.8,125.1c-0.2,0-0.4,0-0.6,0v0h-50.1h-40.8h-13.7l-60.1,48.7V80.6l-34.4,28v93.1v44.2v0.1l15-12.2
			l18.2-14.8l72.4,62.4l34.4,29.6v-45.4v-42.5h59.8c27.1,0,49-21.9,49-49S325.9,125.1,298.8,125.1z M298.8,189.4h-14.7h-30.4H239
			h-34.4v33.7V236l-45.3-39l47.1-38.2h0.7h4.5h72.4h14.1h0.6c8.4,0,15.3,6.8,15.3,15.3S307.3,189.4,298.8,189.4z"/>
	</g>
	<g>
		<g>
			<path class="st3" d="M215.5,364.3c-47.5,0-92.1-18.9-125.6-53.2C56.4,276.8,38,231.4,38,183S56.4,89.1,89.9,54.9
				C123.4,20.6,168,1.7,215.5,1.7s92.1,18.9,125.6,53.2C374.6,89.1,393,134.6,393,183s-18.4,93.8-51.9,128.1
				C307.6,345.4,263,364.3,215.5,364.3z M215.5,33.5c-80.3,0-145.7,67.1-145.7,149.5s65.4,149.5,145.7,149.5
				c80.3,0,145.7-67.1,145.7-149.5S295.8,33.5,215.5,33.5z"/>
		</g>
	</g>
</g>
</svg>
