<?xml version="1.0" encoding="utf-8"?>
<!-- Generator: Adobe Illustrator 21.0.0, SVG Export Plug-In . SVG Version: 6.00 Build 0)  -->
<svg version="1.1" id="Layer_2" xmlns="http://www.w3.org/2000/svg" xmlns:xlink="http://www.w3.org/1999/xlink" x="0px" y="0px"
	 viewBox="0 0 428 365" style="enable-background:new 0 0 428 365;" xml:space="preserve">
<style type="text/css">
	.st0{fill:none;}
	.st1{fill:#FFFFFF;}
</style>
<g>
	<path class="st0" d="M332,124h-1h-22.2H195h-7h-1.2l-74,60l71.1,61.3V225v-53h54h23h47.8H332c13.3,0,24-10.7,24-24
		S345.3,124,332,124z"/>
	<path class="st1" d="M333,71c-0.3,0-0.7,0-1,0v0h-78.8H189h-21.5L73,147.6V1L19,45v146.4v69.5v0.1l23.6-19.3l28.6-23.2l113.8,98
		l54,46.5v-71.3V225h94c42.5,0,77-34.5,77-77S375.5,71,333,71z M333,172h-23.2H262h-23h-54v53v20.3L113.9,184l74-60h1.2h7h113.8H332
		h1c13.3,0,24,10.7,24,24S346.3,172,333,172z"/>
</g>
</svg>
