<?xml version="1.0" encoding="utf-8"?>
<!-- Generator: Adobe Illustrator 21.0.0, SVG Export Plug-In . SVG Version: 6.00 Build 0)  -->
<svg version="1.1" xmlns="http://www.w3.org/2000/svg" xmlns:xlink="http://www.w3.org/1999/xlink" x="0px" y="0px"
	 viewBox="0 0 1920 1000" style="enable-background:new 0 0 1920 1000;" xml:space="preserve">
<style type="text/css">
	.st0{display:none;}
	.st1{display:inline;}
	.st2{fill:url(#SVGID_1_);}
	.st3{fill:#FFFFFF;}
	.st4{display:inline;fill:#FFFFFF;}
</style>
<g id="bg" class="st0">
	<g class="st1">
		<linearGradient id="SVGID_1_" gradientUnits="userSpaceOnUse" x1="961.7988" y1="4.4562" x2="958.1937" y2="997.6014">
			<stop  offset="0" style="stop-color:#222262"/>
			<stop  offset="1" style="stop-color:#266AAB"/>
		</linearGradient>
		<rect x="0.5" y="0.5" class="st2" width="1919" height="999"/>
		<path d="M1919,1v998H1V1H1919 M1920,0H0v1000h1920V0L1920,0z"/>
	</g>
</g>
<g id="dot" class="st0">
	<g class="st1">
		<circle class="st3" cx="212.5" cy="139.5" r="5"/>
	</g>
	<circle class="st4" cx="306" cy="209" r="3"/>
	<circle class="st4" cx="129" cy="265" r="1.5"/>
	<circle class="st4" cx="959" cy="475" r="3"/>
	<circle class="st4" cx="699" cy="325" r="1.5"/>
	<g class="st1">
		<circle class="st3" cx="959.5" cy="295.5" r="5"/>
	</g>
	<circle class="st4" cx="1079" cy="395" r="1.5"/>
	<circle class="st4" cx="469" cy="355" r="1.5"/>
	<circle class="st4" cx="579" cy="275" r="3"/>
	<g class="st1">
		<circle class="st3" cx="619.5" cy="65.5" r="5"/>
	</g>
	<g class="st1">
		<circle class="st3" cx="529.5" cy="535.5" r="5"/>
	</g>
	<g class="st1">
		<circle class="st3" cx="1409.5" cy="475.5" r="5"/>
	</g>
	<g class="st1">
		<circle class="st3" cx="1609.5" cy="185.5" r="5"/>
	</g>
	<circle class="st4" cx="229" cy="475" r="3"/>
	<circle class="st4" cx="1729" cy="415" r="3"/>
	<circle class="st4" cx="1779" cy="585" r="3"/>
	<circle class="st4" cx="1279" cy="185" r="1.5"/>
	<circle class="st4" cx="1269" cy="345" r="3"/>
	<circle class="st4" cx="1059" cy="115" r="3"/>
	<circle class="st4" cx="1459" cy="45" r="1.5"/>
	<circle class="st4" cx="1819" cy="265" r="1.5"/>
</g>
<g id="Layer_3">
	<g>
		<circle class="st3" cx="212.5" cy="139.5" r="5"/>
	</g>
	<circle class="st3" cx="306" cy="209" r="3"/>
	<circle class="st3" cx="129" cy="265" r="1.5"/>
	<circle class="st3" cx="959" cy="475" r="3"/>
	<circle class="st3" cx="699" cy="325" r="1.5"/>
	<g>
		<circle class="st3" cx="959.5" cy="295.5" r="5"/>
	</g>
	<circle class="st3" cx="1079" cy="395" r="1.5"/>
	<circle class="st3" cx="469" cy="355" r="1.5"/>
	<circle class="st3" cx="579" cy="275" r="3"/>
	<g>
		<circle class="st3" cx="619.5" cy="65.5" r="5"/>
	</g>
	<g>
		<circle class="st3" cx="529.5" cy="535.5" r="5"/>
	</g>
	<g>
		<circle class="st3" cx="1409.5" cy="475.5" r="5"/>
	</g>
	<g>
		<circle class="st3" cx="1609.5" cy="185.5" r="5"/>
	</g>
	<circle class="st3" cx="229" cy="475" r="3"/>
	<circle class="st3" cx="1729" cy="415" r="3"/>
	<circle class="st3" cx="1779" cy="585" r="3"/>
	<circle class="st3" cx="1279" cy="185" r="1.5"/>
	<circle class="st3" cx="1269" cy="345" r="3"/>
	<circle class="st3" cx="1059" cy="115" r="3"/>
	<circle class="st3" cx="1459" cy="45" r="1.5"/>
	<circle class="st3" cx="1819" cy="265" r="1.5"/>
	<circle class="st3" cx="723" cy="421" r="1.5"/>
	<circle class="st3" cx="833" cy="161" r="1.5"/>
	<circle class="st3" cx="31" cy="397" r="1.5"/>
	<circle class="st3" cx="81" cy="117" r="1.5"/>
	<circle class="st3" cx="461" cy="167" r="1.5"/>
	<circle class="st3" cx="1487" cy="279" r="1.5"/>
	<circle class="st3" cx="1587" cy="429" r="1.5"/>
	<circle class="st3" cx="1777" cy="159" r="1.5"/>
	<circle class="st3" cx="1175" cy="517" r="1.5"/>
	<circle class="st3" cx="1145" cy="17" r="1.5"/>
	<circle class="st3" cx="1185" cy="47" r="1.5"/>
	<circle class="st3" cx="645" cy="57" r="1.5"/>
	<circle class="st3" cx="731" cy="508" r="1"/>
	<circle class="st3" cx="1115" cy="237" r="1.5"/>
	<circle class="st3" cx="985" cy="497" r="1.5"/>
	<circle class="st3" cx="915" cy="17" r="1.5"/>
	<circle class="st3" cx="1905" cy="77" r="1.5"/>
	<circle class="st3" cx="1905" cy="487" r="1.5"/>
	<circle class="st3" cx="1835" cy="297" r="1.5"/>
</g>
</svg>
