<?xml version="1.0" encoding="utf-8"?>
<!-- Generator: Adobe Illustrator 21.0.0, SVG Export Plug-In . SVG Version: 6.00 Build 0)  -->
<svg version="1.1" xmlns="http://www.w3.org/2000/svg" xmlns:xlink="http://www.w3.org/1999/xlink" x="0px" y="0px"
	 viewBox="0 0 106 100" style="enable-background:new 0 0 106 100;" xml:space="preserve">
<style type="text/css">
	.st0{display:none;}
	.st1{display:inline;fill:#025599;}
	.st2{fill:none;stroke:#FFFFFF;stroke-width:0.75;stroke-miterlimit:10;}
	.st3{fill:none;stroke:#FFFFFF;stroke-width:0.8603;stroke-miterlimit:10;}
	.st4{fill:none;stroke:#FFFFFF;stroke-width:0.5162;stroke-miterlimit:10;}
	.st5{fill:#FFFFFF;}
	.st6{display:inline;fill:none;stroke:#FFFFFF;stroke-width:0.75;stroke-miterlimit:10;}
	.st7{display:inline;fill:#FFFFFF;}
	.st8{display:inline;}
</style>
<g id="bg" class="st0">
	<rect class="st1" width="106" height="100"/>
</g>
<g id="websites_1_">
	<path class="st2" d="M101.5,83.5v-62c0-2.7-2.2-4.9-4.9-4.9H9.4c-2.7,0-4.9,2.2-4.9,4.9v61.6c0.2,0.2,0.3,0.3,0.4,0.4L101.5,83.5
		C101.5,83.5,101.5,83.5,101.5,83.5z"/>
	<rect x="9.5" y="27.5" class="st3" width="87" height="51"/>
	<circle class="st4" cx="12" cy="22" r="1.5"/>
	<circle class="st4" cx="19" cy="22" r="1.5"/>
	<circle class="st4" cx="26" cy="22" r="1.5"/>
	<path class="st5" d="M93,23H48c-0.5,0-1-0.4-1-1v0c0-0.5,0.5-1,1-1h45c0.6,0,1,0.4,1,1v0C94,22.6,93.6,23,93,23z"/>
	<rect x="9.5" y="39.5" class="st2" width="87" height="25"/>
	<circle class="st5" cx="19" cy="33" r="2.5"/>
	<path class="st5" d="M89.5,34.5h-28c-0.5,0-1-0.5-1-1l0,0c0-0.5,0.5-1,1-1h28c0.6,0,1,0.5,1,1l0,0C90.5,34,90.1,34.5,89.5,34.5z"/>
	<polygon class="st2" points="57.3,44.5 48.7,44.5 44.3,52 48.7,59.5 57.3,59.5 61.7,52 	"/>
</g>
<g id="iphone" class="st0">
	<path class="st6" d="M69.5,96.5h-34c-2.8,0-5-2.3-5-5v-83c0-2.8,2.3-5,5-5h34c2.8,0,5,2.3,5,5v83C74.5,94.3,72.3,96.5,69.5,96.5z"
		/>
	<path class="st7" d="M63,7H42c-1.1,0-2-0.9-2-2v0c0-1.1-1-2-1-2h27c0,0-1,0.9-1,2v0C65,6.1,64.1,7,63,7z"/>
	<path class="st7" d="M75,42L75,42c-0.6,0-1-0.5-1-1V27c0-0.5,0.4-1,1-1l0,0c0.6,0,1,0.4,1,1v14C76,41.5,75.6,42,75,42z"/>
	<polygon class="st7" points="56.3,29 48.7,29 45,35.5 48.7,42 56.3,42 60,35.5 	"/>
	<path class="st7" d="M64.5,57h-24c-0.8,0-1.5-0.7-1.5-1.5l0,0c0-0.8,0.7-1.5,1.5-1.5h24c0.8,0,1.5,0.7,1.5,1.5l0,0
		C66,56.3,65.3,57,64.5,57z"/>
	<path class="st7" d="M64.5,64h-24c-0.8,0-1.5-0.7-1.5-1.5l0,0c0-0.8,0.7-1.5,1.5-1.5h24c0.8,0,1.5,0.7,1.5,1.5l0,0
		C66,63.3,65.3,64,64.5,64z"/>
	<path class="st7" d="M57,74h-9c-1.1,0-2-0.9-2-2l0,0c0-1.1,0.9-2,2-2h9c1.1,0,2,0.9,2,2l0,0C59,73.1,58.1,74,57,74z"/>
</g>
<g id="design" class="st0">
	<g class="st8">
		<path class="st2" d="M18.2,85.3L18.2,85.3c-2.4-2.3-2.4-6.1-0.2-8.5l56.9-59l9.9-1.6l0,0l-1.2,9.9l-56.9,59
			C24.4,87.5,20.6,87.6,18.2,85.3z"/>
		<line class="st2" x1="79.3" y1="21.9" x2="25.9" y2="77.4"/>
		<path class="st2" d="M75,17.8c0,0,0.1,4.2,4.3,4.2c0,0,0.1,4.2,4.3,4.2"/>
		<line class="st2" x1="21.5" y1="73.2" x2="30.2" y2="81.5"/>
	</g>
	<g class="st8">
		<rect x="46.5" y="2.5" transform="matrix(0.7174 -0.6966 0.6966 0.7174 -20.2036 51.19)" class="st2" width="13" height="96"/>
		<line class="st2" x1="21.9" y1="27.8" x2="24.7" y2="25"/>
		<line class="st2" x1="28.8" y1="34.9" x2="31.7" y2="32.2"/>
		<line class="st2" x1="35.8" y1="42.1" x2="38.7" y2="39.3"/>
		<line class="st2" x1="42.8" y1="49.3" x2="45.6" y2="46.5"/>
		<line class="st2" x1="49.7" y1="56.5" x2="52.6" y2="53.7"/>
		<line class="st2" x1="56.7" y1="63.6" x2="59.6" y2="60.9"/>
		<line class="st2" x1="63.7" y1="70.8" x2="66.5" y2="68"/>
		<line class="st2" x1="70.6" y1="78" x2="73.5" y2="75.2"/>
		<line class="st2" x1="77.6" y1="85.2" x2="80.5" y2="82.4"/>
		<line class="st2" x1="18.4" y1="24.2" x2="19.8" y2="22.8"/>
		<line class="st2" x1="25.3" y1="31.4" x2="26.8" y2="30"/>
		<line class="st2" x1="32.3" y1="38.5" x2="33.7" y2="37.1"/>
		<line class="st2" x1="39.3" y1="45.7" x2="40.7" y2="44.3"/>
		<line class="st2" x1="46.2" y1="52.9" x2="47.7" y2="51.5"/>
		<line class="st2" x1="53.2" y1="60.1" x2="54.6" y2="58.7"/>
		<line class="st2" x1="60.2" y1="67.2" x2="61.6" y2="65.8"/>
		<line class="st2" x1="67.1" y1="74.4" x2="68.6" y2="73"/>
		<line class="st2" x1="74.1" y1="81.6" x2="75.5" y2="80.2"/>
	</g>
</g>
</svg>
